<svg xmlns="http://www.w3.org/2000/svg" viewBox="51 396 1157 427">
<defs><filter id="neon" x="-40%" y="-40%" width="180%" height="180%">
<feGaussianBlur in="SourceGraphic" stdDeviation="9" result="b1"/>
<feGaussianBlur in="SourceGraphic" stdDeviation="22" result="b2"/>
<feMerge><feMergeNode in="b2"/><feMergeNode in="b1"/></feMerge></filter></defs>
<g transform="translate(0,1254) scale(0.1,-0.1)"><g fill="#FF2301" filter="url(#neon)" opacity="0.8"><path d="M1720 7874 c-195 -30 -204 -32 -269 -78 -66 -47 -102 -84 -153 -161
-85 -128 -83 -96 -83 -1230 0 -980 0 -980 24 -1055 83 -257 263 -370 545 -341
127 13 257 87 323 184 15 23 31 44 34 47 46 37 91 242 76 345 -11 82 12 265
34 265 16 0 84 -72 103 -111 10 -19 61 -76 113 -125 51 -49 174 -168 273 -264
294 -287 297 -289 405 -313 87 -20 161 -22 245 -8 88 15 96 18 127 49 16 15
44 39 63 52 36 25 80 70 80 82 0 4 14 28 31 53 30 44 31 49 24 111 -5 48 -2
82 10 128 17 62 17 62 -9 108 -14 26 -26 61 -26 78 0 25 -12 43 -55 86 -30 30
-55 59 -55 64 0 5 -16 20 -36 34 -20 13 -44 38 -54 54 -10 16 -51 56 -91 88
-90 74 -115 97 -163 157 -21 26 -54 56 -74 66 -21 11 -59 44 -85 75 -26 30
-63 63 -82 72 -19 9 -35 21 -35 26 0 17 60 82 98 105 19 12 76 61 126 110 51
48 114 108 142 131 82 73 114 104 114 114 0 4 20 21 45 37 63 40 165 154 208
234 45 83 67 227 43 281 -8 17 -19 53 -26 80 -6 27 -19 61 -28 75 -10 14 -24
39 -32 54 -24 48 -60 76 -156 123 -108 53 -254 67 -321 31 -18 -9 -45 -17 -60
-17 -49 0 -124 -54 -253 -180 -69 -67 -192 -189 -275 -269 -82 -81 -163 -167
-180 -192 -16 -24 -51 -70 -77 -103 -30 -37 -51 -76 -58 -107 -7 -30 -18 -49
-26 -49 -19 0 -17 -22 -28 345 -10 347 -19 380 -139 512 -76 83 -265 161 -357
147z m158 -159 c116 -53 189 -138 213 -250 19 -87 20 -1990 1 -2052 -16 -53
-49 -63 -35 -10 4 17 8 484 8 1037 0 1005 0 1005 -22 1050 -38 76 -95 144
-128 151 -17 4 -47 14 -68 23 -58 26 -143 30 -207 11 -30 -10 -69 -18 -87 -19
-33 -1 -73 -30 -73 -52 0 -8 -21 -48 -47 -90 -48 -77 -48 -77 -48 -1093 0
-1016 0 -1016 33 -1078 37 -73 39 -83 12 -83 -27 0 -52 41 -67 114 -19 92 -18
2017 1 2099 51 217 306 337 514 242z m1553 -46 c27 -12 49 -25 49 -30 0 -5 6
-9 14 -9 20 0 96 -89 96 -111 0 -35 -28 -19 -71 40 -51 70 -70 75 -281 74
-157 0 -175 21 -43 50 61 14 188 6 236 -14z m-371 -83 c0 -17 -513 -520 -535
-524 -43 -10 2 47 158 197 94 91 213 205 262 253 88 85 115 103 115 74z m-590
-579 c0 -12 -6 -32 -14 -43 -62 -87 -69 -216 -19 -313 35 -69 38 -89 11 -78
-65 24 -100 235 -58 349 36 100 80 146 80 85z m-195 -376 c56 -80 83 -117 119
-157 40 -45 48 -112 14 -123 -41 -14 -138 -156 -138 -203 0 -32 -29 -20 -34
15 -28 173 -33 299 -15 417 12 87 22 96 54 51z m540 -275 c66 -17 95 -33 95
-51 0 -18 -37 -17 -103 3 -45 14 -71 13 -224 -3 -84 -9 -34 38 62 58 42 9 122
6 170 -7z m382 -293 c130 -126 268 -257 305 -292 37 -35 68 -70 68 -77 0 -20
-37 -17 -58 4 -10 9 -147 140 -305 291 -158 151 -287 280 -287 288 0 41 56 -2
277 -214z"/><path d="M7555 7798 c-143 -13 -284 -43 -352 -74 -17 -8 -34 -14 -38 -14 -3 0
-25 -9 -48 -19 -23 -10 -58 -26 -78 -34 -20 -8 -69 -37 -108 -63 -40 -27 -88
-58 -106 -70 -121 -72 -395 -411 -395 -488 0 -8 -11 -27 -24 -43 -13 -15 -31
-43 -40 -61 -25 -49 -56 -41 -72 18 -13 49 -55 129 -91 173 -13 16 -23 34 -23
41 0 12 -58 94 -88 125 -7 8 -31 38 -52 67 -22 28 -54 62 -72 75 -18 13 -55
44 -81 69 -26 25 -74 59 -105 77 -155 87 -211 115 -257 129 -27 9 -89 29 -137
45 -220 73 -644 59 -818 -26 -25 -12 -68 -29 -96 -39 -28 -9 -73 -31 -100 -48
-27 -18 -69 -42 -94 -54 -41 -21 -77 -51 -210 -179 -67 -64 -226 -289 -247
-350 -6 -17 -22 -48 -37 -69 -15 -22 -29 -51 -32 -65 -2 -14 -16 -48 -29 -76
-14 -27 -28 -63 -31 -80 -3 -16 -13 -50 -21 -75 -61 -186 -40 -530 45 -730 24
-58 48 -124 53 -148 5 -24 18 -55 29 -70 36 -47 68 -96 94 -142 39 -74 144
-198 209 -247 19 -16 68 -53 109 -84 142 -109 299 -176 506 -214 306 -56 644
-20 880 95 46 22 87 40 92 40 6 0 10 5 10 10 0 6 4 10 9 10 30 0 266 180 322
245 52 60 91 114 105 145 9 19 33 53 53 77 21 23 43 60 49 81 14 45 62 102 85
102 25 0 73 -67 92 -128 11 -33 31 -68 50 -86 18 -18 39 -45 48 -61 9 -17 27
-43 41 -59 14 -16 26 -33 26 -38 0 -14 111 -128 125 -128 6 0 30 -20 53 -44
23 -24 75 -63 115 -86 39 -22 90 -52 112 -65 22 -13 96 -43 164 -65 377 -124
822 -88 1143 92 37 21 71 38 75 38 17 0 195 150 248 210 22 24 61 67 88 94 26
28 47 55 47 59 0 5 16 31 35 57 19 26 46 72 59 101 54 122 122 152 143 64 7
-27 21 -61 31 -75 11 -14 31 -51 46 -83 15 -31 32 -57 37 -57 6 0 17 -16 25
-36 8 -19 38 -59 67 -88 29 -30 66 -70 82 -90 17 -20 37 -38 46 -41 8 -3 24
-13 35 -23 97 -86 259 -178 374 -212 36 -10 79 -23 95 -29 139 -47 479 -63
680 -32 124 19 339 84 452 137 51 24 98 44 103 44 4 0 10 3 12 8 2 4 33 27 70
52 125 83 198 189 228 333 29 136 30 776 1 852 -56 152 -127 245 -185 245 -17
0 -76 59 -76 76 0 7 8 22 18 32 158 159 200 395 104 590 -22 44 -157 171 -202
190 -19 8 -37 17 -40 21 -18 23 -214 108 -280 120 -25 5 -70 16 -100 24 -116
32 -493 30 -618 -2 -20 -5 -66 -17 -102 -26 -110 -27 -309 -119 -398 -184
-118 -86 -167 -126 -202 -165 -19 -22 -61 -67 -92 -102 -31 -34 -66 -81 -79
-105 -12 -24 -36 -65 -55 -91 -18 -27 -42 -74 -54 -106 -36 -96 -78 -114 -106
-45 -9 20 -26 51 -38 67 -13 17 -31 53 -40 79 -10 26 -28 60 -41 75 -12 15
-32 47 -45 72 -13 24 -41 63 -64 85 -23 22 -54 56 -68 76 -45 61 -296 241
-367 264 -14 4 -57 23 -98 42 -40 19 -117 43 -171 54 -53 10 -121 24 -151 30
-71 14 -167 17 -266 7z m322 -139 c391 -74 717 -328 888 -692 78 -167 117
-311 122 -454 4 -97 2 -113 -11 -113 -13 0 -16 12 -16 58 0 145 -71 381 -163
543 -55 96 -196 289 -212 289 -6 0 -29 15 -51 33 -469 396 -1070 406 -1530 26
-78 -65 -79 -65 -101 -44 -22 23 -13 36 84 114 274 222 632 308 990 240z
m2533 21 c369 -33 750 -229 750 -387 0 -38 -24 -46 -34 -10 -8 33 -59 107 -73
107 -7 0 -42 20 -77 44 -183 125 -315 170 -576 196 -308 31 -627 -71 -891
-286 -64 -52 -89 -65 -89 -44 0 6 -7 10 -15 10 -37 0 -7 35 93 110 220 165
459 248 772 268 14 1 77 -3 140 -8z m-5092 -29 c496 -125 847 -501 951 -1018
25 -122 30 -333 8 -333 -11 0 -15 29 -20 118 -21 413 -217 771 -541 987 -476
317 -995 295 -1448 -64 -61 -48 -98 -85 -98 -97 0 -3 -20 -28 -44 -55 -25 -27
-57 -70 -73 -94 -22 -35 -34 -45 -55 -45 -77 0 40 166 242 342 172 150 348
231 610 282 69 13 387 -2 468 -23z m1448 -385 c21 -22 18 -34 -25 -82 -21 -24
-56 -71 -77 -104 -22 -34 -46 -59 -56 -60 -39 -1 -139 -248 -178 -440 -22
-104 -24 -339 -4 -422 5 -21 3 -28 -9 -28 -48 0 -50 387 -3 560 47 173 97 286
163 364 18 22 33 50 33 63 0 23 112 163 131 163 6 0 17 -6 25 -14z m2594 4 c0
-5 7 -10 15 -10 25 0 17 -25 -23 -71 -21 -24 -53 -63 -71 -86 -18 -24 -41 -43
-52 -43 -19 0 -23 -12 -20 -56 2 -25 -14 -40 -53 -50 -28 -7 -29 -6 -22 22 11
41 45 94 62 94 9 0 14 11 14 29 0 21 17 52 60 105 54 68 90 94 90 66z m-5410
-290 c0 -6 -11 -33 -25 -60 -199 -392 -159 -879 101 -1241 57 -78 273 -299
293 -299 6 0 11 -7 11 -15 0 -8 -7 -15 -15 -15 -8 0 -15 3 -15 8 0 4 -14 13
-31 21 -43 19 -195 166 -261 253 -269 352 -323 871 -133 1266 39 81 75 120 75
82z m5170 -89 c0 -5 -15 -56 -34 -113 -143 -428 -74 -812 209 -1174 69 -87
194 -194 307 -262 72 -43 98 -72 65 -72 -8 0 -55 26 -106 58 -515 324 -717
960 -486 1530 15 37 45 59 45 33z m1300 -39 c104 -27 105 -27 108 -58 4 -40
-27 -50 -103 -33 -94 21 -285 -56 -329 -133 -10 -18 -30 -45 -43 -60 -22 -23
-48 -96 -70 -191 -7 -32 11 -145 35 -222 12 -38 30 -64 79 -110 90 -87 86
-105 -16 -85 -52 10 -183 95 -196 128 -3 8 -26 45 -50 82 -45 66 -46 68 -57
189 -10 122 -10 122 21 190 17 37 31 72 31 78 0 6 11 21 25 34 14 13 35 41 47
61 12 21 37 44 57 54 20 9 51 30 68 45 18 16 52 33 75 39 24 6 48 13 53 15 35
12 171 1 265 -23z m-5336 3 c27 -8 61 -15 75 -15 31 0 75 -23 127 -65 20 -16
48 -40 63 -51 89 -72 156 -355 106 -450 -8 -16 -15 -38 -15 -50 0 -32 -73
-135 -132 -184 -41 -35 -76 -53 -156 -79 -103 -34 -103 -34 -200 -16 -124 24
-150 38 -243 127 -107 104 -139 183 -139 345 0 61 32 183 62 233 16 28 110
130 120 130 4 0 29 14 57 31 82 51 193 69 275 44z m2601 1 c160 -26 254 -93
336 -240 112 -201 59 -426 -144 -604 -33 -29 -142 -67 -217 -75 -106 -12 -281
50 -330 118 -8 11 -38 47 -66 81 -184 217 -72 599 205 700 100 37 110 38 216
20z m3381 -197 c64 -11 134 -50 134 -74 0 -23 -30 -18 -94 15 -59 31 -59 31
-425 27 -201 -1 -377 -7 -390 -11 -19 -8 -22 -6 -19 10 6 35 74 42 414 43 188
1 345 -3 380 -10z m-866 -90 c0 -11 -9 -33 -20 -49 -78 -110 -77 -283 3 -349
20 -16 23 -51 4 -51 -17 0 -53 49 -77 106 -41 94 -16 277 47 346 22 24 43 23
43 -3z m1053 -67 c26 -57 26 -57 27 -423 0 -375 -7 -469 -36 -469 -12 0 -13 8
-7 38 17 81 8 783 -11 832 -29 74 -30 80 -14 80 9 0 27 -25 41 -58z m-6788
-219 c12 -64 46 -143 91 -210 73 -108 47 -149 -28 -43 -34 49 -98 228 -98 276
0 31 28 12 35 -23z m1140 -20 c-4 -21 -18 -65 -31 -97 -13 -33 -24 -69 -24
-80 0 -41 -108 -174 -175 -216 -187 -116 -554 -113 -693 6 -73 62 -50 87 32
33 163 -109 408 -121 590 -29 109 55 210 194 262 363 21 67 51 82 39 20z m671
-42 c-15 -161 -169 -521 -223 -521 -22 0 -15 21 28 90 82 132 138 279 161 423
9 54 17 77 27 77 11 0 13 -13 7 -69z m808 33 c9 -47 69 -164 120 -234 200
-278 720 -259 884 32 35 62 57 65 47 6 -10 -61 -118 -188 -159 -188 -8 0 -43
-13 -77 -30 -146 -69 -339 -79 -489 -25 -176 64 -322 242 -355 433 -9 55 19
61 29 6z m1791 -51 c-31 -220 -195 -576 -243 -529 -4 4 2 22 12 39 119 199
170 321 197 470 15 83 46 100 34 20z m880 -99 c61 -105 109 -154 200 -204 170
-93 403 -113 540 -45 54 26 88 25 83 -3 -10 -52 -293 -88 -459 -59 -201 35
-401 203 -434 365 -12 58 17 36 70 -54z m-3291 -74 c139 -443 525 -784 954
-842 61 -8 92 -17 92 -25 0 -42 -256 15 -435 97 -320 145 -602 497 -661 823
-13 76 20 40 50 -53z"/></g></g>
<g transform="translate(0,1254) scale(0.1,-0.1)"><g fill="#FF2301" stroke="#FFDAD2" stroke-width="13" stroke-linejoin="round" fill-rule="evenodd"><path d="M1720 7874 c-195 -30 -204 -32 -269 -78 -66 -47 -102 -84 -153 -161
-85 -128 -83 -96 -83 -1230 0 -980 0 -980 24 -1055 83 -257 263 -370 545 -341
127 13 257 87 323 184 15 23 31 44 34 47 46 37 91 242 76 345 -11 82 12 265
34 265 16 0 84 -72 103 -111 10 -19 61 -76 113 -125 51 -49 174 -168 273 -264
294 -287 297 -289 405 -313 87 -20 161 -22 245 -8 88 15 96 18 127 49 16 15
44 39 63 52 36 25 80 70 80 82 0 4 14 28 31 53 30 44 31 49 24 111 -5 48 -2
82 10 128 17 62 17 62 -9 108 -14 26 -26 61 -26 78 0 25 -12 43 -55 86 -30 30
-55 59 -55 64 0 5 -16 20 -36 34 -20 13 -44 38 -54 54 -10 16 -51 56 -91 88
-90 74 -115 97 -163 157 -21 26 -54 56 -74 66 -21 11 -59 44 -85 75 -26 30
-63 63 -82 72 -19 9 -35 21 -35 26 0 17 60 82 98 105 19 12 76 61 126 110 51
48 114 108 142 131 82 73 114 104 114 114 0 4 20 21 45 37 63 40 165 154 208
234 45 83 67 227 43 281 -8 17 -19 53 -26 80 -6 27 -19 61 -28 75 -10 14 -24
39 -32 54 -24 48 -60 76 -156 123 -108 53 -254 67 -321 31 -18 -9 -45 -17 -60
-17 -49 0 -124 -54 -253 -180 -69 -67 -192 -189 -275 -269 -82 -81 -163 -167
-180 -192 -16 -24 -51 -70 -77 -103 -30 -37 -51 -76 -58 -107 -7 -30 -18 -49
-26 -49 -19 0 -17 -22 -28 345 -10 347 -19 380 -139 512 -76 83 -265 161 -357
147z m158 -159 c116 -53 189 -138 213 -250 19 -87 20 -1990 1 -2052 -16 -53
-49 -63 -35 -10 4 17 8 484 8 1037 0 1005 0 1005 -22 1050 -38 76 -95 144
-128 151 -17 4 -47 14 -68 23 -58 26 -143 30 -207 11 -30 -10 -69 -18 -87 -19
-33 -1 -73 -30 -73 -52 0 -8 -21 -48 -47 -90 -48 -77 -48 -77 -48 -1093 0
-1016 0 -1016 33 -1078 37 -73 39 -83 12 -83 -27 0 -52 41 -67 114 -19 92 -18
2017 1 2099 51 217 306 337 514 242z m1553 -46 c27 -12 49 -25 49 -30 0 -5 6
-9 14 -9 20 0 96 -89 96 -111 0 -35 -28 -19 -71 40 -51 70 -70 75 -281 74
-157 0 -175 21 -43 50 61 14 188 6 236 -14z m-371 -83 c0 -17 -513 -520 -535
-524 -43 -10 2 47 158 197 94 91 213 205 262 253 88 85 115 103 115 74z m-590
-579 c0 -12 -6 -32 -14 -43 -62 -87 -69 -216 -19 -313 35 -69 38 -89 11 -78
-65 24 -100 235 -58 349 36 100 80 146 80 85z m-195 -376 c56 -80 83 -117 119
-157 40 -45 48 -112 14 -123 -41 -14 -138 -156 -138 -203 0 -32 -29 -20 -34
15 -28 173 -33 299 -15 417 12 87 22 96 54 51z m540 -275 c66 -17 95 -33 95
-51 0 -18 -37 -17 -103 3 -45 14 -71 13 -224 -3 -84 -9 -34 38 62 58 42 9 122
6 170 -7z m382 -293 c130 -126 268 -257 305 -292 37 -35 68 -70 68 -77 0 -20
-37 -17 -58 4 -10 9 -147 140 -305 291 -158 151 -287 280 -287 288 0 41 56 -2
277 -214z"/><path d="M7555 7798 c-143 -13 -284 -43 -352 -74 -17 -8 -34 -14 -38 -14 -3 0
-25 -9 -48 -19 -23 -10 -58 -26 -78 -34 -20 -8 -69 -37 -108 -63 -40 -27 -88
-58 -106 -70 -121 -72 -395 -411 -395 -488 0 -8 -11 -27 -24 -43 -13 -15 -31
-43 -40 -61 -25 -49 -56 -41 -72 18 -13 49 -55 129 -91 173 -13 16 -23 34 -23
41 0 12 -58 94 -88 125 -7 8 -31 38 -52 67 -22 28 -54 62 -72 75 -18 13 -55
44 -81 69 -26 25 -74 59 -105 77 -155 87 -211 115 -257 129 -27 9 -89 29 -137
45 -220 73 -644 59 -818 -26 -25 -12 -68 -29 -96 -39 -28 -9 -73 -31 -100 -48
-27 -18 -69 -42 -94 -54 -41 -21 -77 -51 -210 -179 -67 -64 -226 -289 -247
-350 -6 -17 -22 -48 -37 -69 -15 -22 -29 -51 -32 -65 -2 -14 -16 -48 -29 -76
-14 -27 -28 -63 -31 -80 -3 -16 -13 -50 -21 -75 -61 -186 -40 -530 45 -730 24
-58 48 -124 53 -148 5 -24 18 -55 29 -70 36 -47 68 -96 94 -142 39 -74 144
-198 209 -247 19 -16 68 -53 109 -84 142 -109 299 -176 506 -214 306 -56 644
-20 880 95 46 22 87 40 92 40 6 0 10 5 10 10 0 6 4 10 9 10 30 0 266 180 322
245 52 60 91 114 105 145 9 19 33 53 53 77 21 23 43 60 49 81 14 45 62 102 85
102 25 0 73 -67 92 -128 11 -33 31 -68 50 -86 18 -18 39 -45 48 -61 9 -17 27
-43 41 -59 14 -16 26 -33 26 -38 0 -14 111 -128 125 -128 6 0 30 -20 53 -44
23 -24 75 -63 115 -86 39 -22 90 -52 112 -65 22 -13 96 -43 164 -65 377 -124
822 -88 1143 92 37 21 71 38 75 38 17 0 195 150 248 210 22 24 61 67 88 94 26
28 47 55 47 59 0 5 16 31 35 57 19 26 46 72 59 101 54 122 122 152 143 64 7
-27 21 -61 31 -75 11 -14 31 -51 46 -83 15 -31 32 -57 37 -57 6 0 17 -16 25
-36 8 -19 38 -59 67 -88 29 -30 66 -70 82 -90 17 -20 37 -38 46 -41 8 -3 24
-13 35 -23 97 -86 259 -178 374 -212 36 -10 79 -23 95 -29 139 -47 479 -63
680 -32 124 19 339 84 452 137 51 24 98 44 103 44 4 0 10 3 12 8 2 4 33 27 70
52 125 83 198 189 228 333 29 136 30 776 1 852 -56 152 -127 245 -185 245 -17
0 -76 59 -76 76 0 7 8 22 18 32 158 159 200 395 104 590 -22 44 -157 171 -202
190 -19 8 -37 17 -40 21 -18 23 -214 108 -280 120 -25 5 -70 16 -100 24 -116
32 -493 30 -618 -2 -20 -5 -66 -17 -102 -26 -110 -27 -309 -119 -398 -184
-118 -86 -167 -126 -202 -165 -19 -22 -61 -67 -92 -102 -31 -34 -66 -81 -79
-105 -12 -24 -36 -65 -55 -91 -18 -27 -42 -74 -54 -106 -36 -96 -78 -114 -106
-45 -9 20 -26 51 -38 67 -13 17 -31 53 -40 79 -10 26 -28 60 -41 75 -12 15
-32 47 -45 72 -13 24 -41 63 -64 85 -23 22 -54 56 -68 76 -45 61 -296 241
-367 264 -14 4 -57 23 -98 42 -40 19 -117 43 -171 54 -53 10 -121 24 -151 30
-71 14 -167 17 -266 7z m322 -139 c391 -74 717 -328 888 -692 78 -167 117
-311 122 -454 4 -97 2 -113 -11 -113 -13 0 -16 12 -16 58 0 145 -71 381 -163
543 -55 96 -196 289 -212 289 -6 0 -29 15 -51 33 -469 396 -1070 406 -1530 26
-78 -65 -79 -65 -101 -44 -22 23 -13 36 84 114 274 222 632 308 990 240z
m2533 21 c369 -33 750 -229 750 -387 0 -38 -24 -46 -34 -10 -8 33 -59 107 -73
107 -7 0 -42 20 -77 44 -183 125 -315 170 -576 196 -308 31 -627 -71 -891
-286 -64 -52 -89 -65 -89 -44 0 6 -7 10 -15 10 -37 0 -7 35 93 110 220 165
459 248 772 268 14 1 77 -3 140 -8z m-5092 -29 c496 -125 847 -501 951 -1018
25 -122 30 -333 8 -333 -11 0 -15 29 -20 118 -21 413 -217 771 -541 987 -476
317 -995 295 -1448 -64 -61 -48 -98 -85 -98 -97 0 -3 -20 -28 -44 -55 -25 -27
-57 -70 -73 -94 -22 -35 -34 -45 -55 -45 -77 0 40 166 242 342 172 150 348
231 610 282 69 13 387 -2 468 -23z m1448 -385 c21 -22 18 -34 -25 -82 -21 -24
-56 -71 -77 -104 -22 -34 -46 -59 -56 -60 -39 -1 -139 -248 -178 -440 -22
-104 -24 -339 -4 -422 5 -21 3 -28 -9 -28 -48 0 -50 387 -3 560 47 173 97 286
163 364 18 22 33 50 33 63 0 23 112 163 131 163 6 0 17 -6 25 -14z m2594 4 c0
-5 7 -10 15 -10 25 0 17 -25 -23 -71 -21 -24 -53 -63 -71 -86 -18 -24 -41 -43
-52 -43 -19 0 -23 -12 -20 -56 2 -25 -14 -40 -53 -50 -28 -7 -29 -6 -22 22 11
41 45 94 62 94 9 0 14 11 14 29 0 21 17 52 60 105 54 68 90 94 90 66z m-5410
-290 c0 -6 -11 -33 -25 -60 -199 -392 -159 -879 101 -1241 57 -78 273 -299
293 -299 6 0 11 -7 11 -15 0 -8 -7 -15 -15 -15 -8 0 -15 3 -15 8 0 4 -14 13
-31 21 -43 19 -195 166 -261 253 -269 352 -323 871 -133 1266 39 81 75 120 75
82z m5170 -89 c0 -5 -15 -56 -34 -113 -143 -428 -74 -812 209 -1174 69 -87
194 -194 307 -262 72 -43 98 -72 65 -72 -8 0 -55 26 -106 58 -515 324 -717
960 -486 1530 15 37 45 59 45 33z m1300 -39 c104 -27 105 -27 108 -58 4 -40
-27 -50 -103 -33 -94 21 -285 -56 -329 -133 -10 -18 -30 -45 -43 -60 -22 -23
-48 -96 -70 -191 -7 -32 11 -145 35 -222 12 -38 30 -64 79 -110 90 -87 86
-105 -16 -85 -52 10 -183 95 -196 128 -3 8 -26 45 -50 82 -45 66 -46 68 -57
189 -10 122 -10 122 21 190 17 37 31 72 31 78 0 6 11 21 25 34 14 13 35 41 47
61 12 21 37 44 57 54 20 9 51 30 68 45 18 16 52 33 75 39 24 6 48 13 53 15 35
12 171 1 265 -23z m-5336 3 c27 -8 61 -15 75 -15 31 0 75 -23 127 -65 20 -16
48 -40 63 -51 89 -72 156 -355 106 -450 -8 -16 -15 -38 -15 -50 0 -32 -73
-135 -132 -184 -41 -35 -76 -53 -156 -79 -103 -34 -103 -34 -200 -16 -124 24
-150 38 -243 127 -107 104 -139 183 -139 345 0 61 32 183 62 233 16 28 110
130 120 130 4 0 29 14 57 31 82 51 193 69 275 44z m2601 1 c160 -26 254 -93
336 -240 112 -201 59 -426 -144 -604 -33 -29 -142 -67 -217 -75 -106 -12 -281
50 -330 118 -8 11 -38 47 -66 81 -184 217 -72 599 205 700 100 37 110 38 216
20z m3381 -197 c64 -11 134 -50 134 -74 0 -23 -30 -18 -94 15 -59 31 -59 31
-425 27 -201 -1 -377 -7 -390 -11 -19 -8 -22 -6 -19 10 6 35 74 42 414 43 188
1 345 -3 380 -10z m-866 -90 c0 -11 -9 -33 -20 -49 -78 -110 -77 -283 3 -349
20 -16 23 -51 4 -51 -17 0 -53 49 -77 106 -41 94 -16 277 47 346 22 24 43 23
43 -3z m1053 -67 c26 -57 26 -57 27 -423 0 -375 -7 -469 -36 -469 -12 0 -13 8
-7 38 17 81 8 783 -11 832 -29 74 -30 80 -14 80 9 0 27 -25 41 -58z m-6788
-219 c12 -64 46 -143 91 -210 73 -108 47 -149 -28 -43 -34 49 -98 228 -98 276
0 31 28 12 35 -23z m1140 -20 c-4 -21 -18 -65 -31 -97 -13 -33 -24 -69 -24
-80 0 -41 -108 -174 -175 -216 -187 -116 -554 -113 -693 6 -73 62 -50 87 32
33 163 -109 408 -121 590 -29 109 55 210 194 262 363 21 67 51 82 39 20z m671
-42 c-15 -161 -169 -521 -223 -521 -22 0 -15 21 28 90 82 132 138 279 161 423
9 54 17 77 27 77 11 0 13 -13 7 -69z m808 33 c9 -47 69 -164 120 -234 200
-278 720 -259 884 32 35 62 57 65 47 6 -10 -61 -118 -188 -159 -188 -8 0 -43
-13 -77 -30 -146 -69 -339 -79 -489 -25 -176 64 -322 242 -355 433 -9 55 19
61 29 6z m1791 -51 c-31 -220 -195 -576 -243 -529 -4 4 2 22 12 39 119 199
170 321 197 470 15 83 46 100 34 20z m880 -99 c61 -105 109 -154 200 -204 170
-93 403 -113 540 -45 54 26 88 25 83 -3 -10 -52 -293 -88 -459 -59 -201 35
-401 203 -434 365 -12 58 17 36 70 -54z m-3291 -74 c139 -443 525 -784 954
-842 61 -8 92 -17 92 -25 0 -42 -256 15 -435 97 -320 145 -602 497 -661 823
-13 76 20 40 50 -53z"/></g></g>
</svg>